# xmcd
#
# Track frame offsets:
#	150
#	20600
#	39015
#	54787
#	75442
#	89812
#	105312
#	122950
#	141992
#	160007
#	177617
#	191757
#
# Disc length: 2788 seconds
#
# Revision: 0
# Processed by: cddbd v1.5.1PL0 Copyright (c) Steve Scherf et al.
# Submitted via: EasyCDDAExtractor 8.2.2.1
#
DISCID=970ae20c
DTITLE=Matti Esko - Näin Suomi Pysyy Pyörillään
DYEAR=1989
DGENRE=Country
TTITLE0=Huomenta Suomi
TTITLE1=Tunteiden tumma ilta
TTITLE2=Sä olet mulle niinkuin taivas
TTITLE3=Vain yksi tahtoisin luokses tulla
TTITLE4=Sä varmaan muistat sen
TTITLE5=Kerran elämässä
TTITLE6=Näin suomi pysyy pyörillään
TTITLE7=Keikka Ouluun
TTITLE8=Sinä se oot
TTITLE9=Mies vaikka öitä vuokses valvoo
TTITLE10=Rankan äivän jälkeen
TTITLE11=Yölinjalla
EXTD=
EXTT0=
EXTT1=
EXTT2=
EXTT3=
EXTT4=
EXTT5=
EXTT6=
EXTT7=
EXTT8=
EXTT9=
EXTT10=
EXTT11=
PLAYORDER=
